<svg width="20" height="20" viewBox="0 0 20 20" fill="none" xmlns="http://www.w3.org/2000/svg">
<path d="M3.81355 12.5001H2.97694C2.53317 12.5001 2.10758 12.3245 1.79379 12.0119C1.48 11.6994 1.30371 11.2754 1.30371 10.8334V3.33341C1.30371 2.89139 1.48 2.46746 1.79379 2.1549C2.10758 1.84234 2.53317 1.66675 2.97694 1.66675H10.5065C10.9502 1.66675 11.3758 1.84234 11.6896 2.1549C12.0034 2.46746 12.1797 2.89139 12.1797 3.33341V4.16675M8.83324 7.50008H16.3628C17.2869 7.50008 18.036 8.24627 18.036 9.16675V16.6667C18.036 17.5872 17.2869 18.3334 16.3628 18.3334H8.83324C7.90914 18.3334 7.16001 17.5872 7.16001 16.6667V9.16675C7.16001 8.24627 7.90914 7.50008 8.83324 7.50008Z" stroke="#010101" stroke-width="2" stroke-linecap="round" stroke-linejoin="round"/>
</svg>
